<?xml version="1.0" standalone="no"?>
<!DOCTYPE svg PUBLIC "-//W3C//DTD SVG 20010904//EN"
 "http://www.w3.org/TR/2001/REC-SVG-20010904/DTD/svg10.dtd">
<svg version="1.0" xmlns="http://www.w3.org/2000/svg"
 width="260.000000pt" height="260.000000pt" viewBox="0 0 260.000000 260.000000"
 preserveAspectRatio="xMidYMid meet">
<metadata>
Created by potrace 1.11, written by Peter Selinger 2001-2013
</metadata>
<g transform="translate(0.000000,260.000000) scale(0.100000,-0.100000)"
fill="#000000" stroke="none">
<path d="M1160 2247 c0 -7 -9 -19 -20 -27 -14 -10 -20 -26 -20 -52 l0 -38 -50
0 c-27 0 -50 -4 -50 -10 0 -6 -28 -10 -65 -10 -37 0 -65 -4 -65 -10 0 -5 -22
-10 -50 -10 -27 0 -50 -4 -50 -10 0 -5 -13 -10 -30 -10 -16 0 -30 -4 -30 -10
0 -5 -8 -10 -18 -10 -10 0 -24 -9 -32 -20 -8 -11 -20 -20 -28 -20 -22 0 -62
-48 -62 -75 0 -14 -4 -25 -10 -25 -6 0 -10 -40 -10 -100 0 -60 4 -100 10 -100
6 0 10 -18 10 -40 0 -22 5 -40 10 -40 6 0 10 -16 10 -35 0 -19 5 -35 10 -35 6
0 10 -13 10 -28 0 -16 8 -34 20 -42 14 -10 20 -26 20 -50 0 -24 6 -40 20 -50
11 -8 20 -22 20 -32 0 -10 5 -18 10 -18 6 0 10 -18 10 -40 0 -22 5 -40 10 -40
6 0 10 -8 10 -18 0 -10 9 -24 20 -32 11 -8 20 -22 20 -32 0 -10 5 -18 10 -18
6 0 10 -9 10 -20 0 -11 5 -20 10 -20 6 0 10 -9 10 -20 0 -11 5 -20 10 -20 6 0
10 -13 10 -28 0 -16 8 -34 20 -42 11 -8 20 -24 20 -35 0 -11 9 -27 20 -35 11
-8 20 -25 20 -38 0 -23 40 -72 60 -72 5 0 10 -8 10 -18 0 -10 9 -24 20 -32 11
-8 20 -21 20 -30 0 -9 9 -22 20 -30 11 -8 20 -22 20 -32 0 -16 -13 -18 -155
-18 -97 0 -155 -4 -155 -10 0 -5 -22 -10 -50 -10 -27 0 -50 -4 -50 -10 0 -5
-18 -10 -40 -10 -22 0 -40 -4 -40 -10 0 -5 -9 -10 -20 -10 -11 0 -20 -4 -20
-10 0 -5 -7 -10 -15 -10 -12 0 -15 -14 -15 -70 0 -50 4 -70 13 -70 7 0 19 -9
27 -20 10 -14 26 -20 52 -20 21 0 38 -4 38 -10 0 -5 23 -10 50 -10 28 0 50 -4
50 -10 0 -6 62 -10 165 -10 140 0 165 -2 165 -15 0 -13 23 -15 150 -15 127 0
150 2 150 15 0 13 24 15 155 15 97 0 155 4 155 10 0 6 27 10 60 10 33 0 60 4
60 10 0 6 16 10 35 10 58 0 85 35 85 110 0 63 -13 90 -44 90 -9 0 -16 5 -16
10 0 6 -18 10 -40 10 -22 0 -40 5 -40 10 0 6 -22 10 -50 10 -27 0 -50 5 -50
10 0 6 -58 10 -155 10 -97 0 -155 4 -155 10 0 6 -38 10 -95 10 l-96 0 -34 35
c-19 19 -35 40 -35 47 0 8 -9 20 -20 28 -11 8 -20 21 -20 28 0 8 -13 27 -30
42 -18 17 -30 38 -30 54 0 14 -4 26 -10 26 -5 0 -10 7 -10 15 0 8 -7 15 -15
15 -8 0 -15 8 -15 18 0 10 -9 24 -20 32 -12 8 -20 26 -20 42 0 15 -4 28 -10
28 -5 0 -10 9 -10 20 0 11 -4 20 -10 20 -5 0 -10 9 -10 20 0 11 -4 20 -10 20
-5 0 -10 8 -10 18 0 10 -9 24 -20 32 -11 8 -20 22 -20 32 0 10 -4 18 -10 18
-5 0 -10 18 -10 40 0 22 -4 40 -10 40 -5 0 -10 8 -10 18 0 10 -9 24 -20 32
-14 10 -20 26 -20 50 0 24 -6 40 -20 50 -12 8 -20 26 -20 42 0 15 -4 28 -10
28 -5 0 -10 16 -10 35 0 19 -4 35 -10 35 -5 0 -10 18 -10 40 0 22 -4 40 -10
40 -6 0 -10 33 -10 80 0 47 4 80 10 80 6 0 10 7 10 15 0 20 45 65 65 65 8 0
15 5 15 10 0 6 14 10 30 10 17 0 30 5 30 10 0 6 23 10 50 10 28 0 50 5 50 10
0 6 28 10 65 10 37 0 65 4 65 10 0 6 30 10 70 10 60 0 70 -2 70 -18 0 -10 9
-24 20 -32 11 -8 20 -21 20 -30 0 -9 9 -22 20 -30 11 -8 20 -21 20 -28 0 -7
18 -31 40 -52 22 -21 40 -43 40 -50 0 -6 41 -51 90 -100 50 -49 90 -96 90
-105 0 -25 46 -65 75 -65 14 0 25 -4 25 -10 0 -6 32 -10 75 -10 43 0 75 4 75
10 0 6 7 10 15 10 15 0 85 62 85 75 0 4 23 28 50 55 28 27 50 55 50 62 0 8 9
20 20 28 11 8 20 22 20 32 0 10 5 18 10 18 6 0 10 9 10 20 0 11 5 20 10 20 6
0 10 9 10 20 0 11 5 20 10 20 6 0 10 9 10 20 0 11 5 20 10 20 6 0 10 14 10 30
0 20 5 30 15 30 11 0 15 11 15 40 0 29 -4 40 -15 40 -9 0 -15 10 -15 26 0 29
-21 54 -44 54 -9 0 -16 5 -16 10 0 6 -50 10 -130 10 -80 0 -130 4 -130 10 0 6
-32 10 -75 10 -43 0 -75 4 -75 10 0 6 -22 10 -50 10 -27 0 -50 5 -50 10 0 6
-22 10 -50 10 -38 0 -50 4 -50 15 0 13 -21 15 -130 15 -99 0 -130 -3 -130 -13z
m670 -227 c0 -5 7 -10 15 -10 9 0 31 -16 50 -35 19 -19 35 -41 35 -50 0 -8 5
-15 10 -15 6 0 10 -18 10 -40 0 -22 -4 -40 -10 -40 -5 0 -10 -16 -10 -36 0
-38 -18 -64 -44 -64 -9 0 -16 -4 -16 -10 0 -6 -37 -10 -90 -10 -53 0 -90 4
-90 10 0 6 -9 10 -20 10 -18 0 -20 7 -20 70 0 40 4 70 10 70 6 0 10 14 10 30
0 17 5 30 10 30 6 0 10 7 10 15 0 9 15 31 33 50 25 26 40 34 70 34 20 1 37 -3
37 -9z"/>
</g>
</svg>
